<svg xmlns="http://www.w3.org/2000/svg" viewBox="0 0 524.82 144.28">
  <path fill="#FFF" d="M86.08 127c-.2-1.42.2-2.84-.23-4.18-.36-1.16-1.2-1.27-1.76-2.22-1.46-2.48-2.96-5.7-3.1-8.75-.13-2.74-1.13-5.2-1.27-7.92-.07-1.3.09-2.66.04-3.95-.03-.63-.06-1.18-.19-1.86-.03-.17-.14-.87-.2-1.15l.35-.84c-.15-.3 2.9-.2 3.81-.2 1.55.03 3 .1 4.54.18 3.15.16 6.02.12 9.08-.35 6.83-1.06 9.97-3.85 11.58-5 6.27-4.53 9.15-11.93 9.15-11.93 1.03-2.3 1.03-6.43 3.25-8.27 2.61-2.18 7-2.02 10-3.36 1.76-.78 3.03-1.2 4.82-.83 1.34.27 3.73 1.82 4.29-.35-.45-.29-.62-.81-.86-1.1 2.47-.25.05-5.99-.93-7.14-1.52-1.77-4.04-2.58-6.72-3.29-3.2-.84-6.08-1.82-9.08-1.23-5.25 1.03-4.85-1.97-7.94-1.97-3.71 0-10.3.18-11.45 3.78-.53 1.69-1.07 1.76-2 3.05-.78 1.1.14 2.08-.25 3.34-.41 1.3-1.01 5.87-1.63 7.46-1.06 2.7-2.32 6.06-4.65 6.06-3.26.4-5.82.52-8.47-.44-1.59-.58-4.26-1.48-5.58-2.04-6.08-2.56-7.08-5.37-7.08-5.37-.66-1.08-2.38-2.82-3.02-5.09-.71-2.5-1.9-4.59-2.39-5.9-.5-1.34-1.7-3.5-2.64-5.84-1.2-2.99-2.9-5.22-4.14-6.33-1.9-1.69-3.65-4.3-7.5-3.54-.68.13-3.18.25-5.1 1.85-1.3 1.1-1.7 3.34-2.91 5.24-.7 1.1-1.92 4.24-3.04 6.86-.78 1.82-1.14 3.18-1.98 3.85-.66.53-1.47 1.2-2.45.83a7.49 7.49 0 01-1.93-1.13c-.89-.7-2.91-4.14-4.15-6.68a57.02 57.02 0 00-4.71-7.29c-1.91-2.56-3.04-3.22-5.86-3.22-6.07 0-6.53 3.4-9.2 8.34-1.17 2.17-1.6 5.62-3.95 8.31-1.35 1.55-5.64 7.9-8.62 8.98v-.03l-.01.03v45.32-.29c.2-.59.4-1.15.64-1.66 1.15-2.46 3.83-4.74 5.32-7.27.8-1.37 1.73-2.72 2.27-4.16.46-1.25.68-3.1 1.35-4.18.82-1.33 2.1-1.78 3.4-1.99 2.06-.34 3.8 2.95 6.44 4.17 1.12.51 6.28 2.34 7.83 2.71 2.55.61 5.38 1.12 7.97 1.65 1.39.28 2.71.44 4.14.58 1.28.13 6.08.3 6.38.64-2.44 1.24-3.87 4.73-4.79 7.2-.95 2.58-1.62 5.45-2.77 7.96-1.28 2.79-3.96 3.95-3.64 7.19.12 1.3.35 2.65.14 4.07-.23 1.5-.84 2.67-1.28 4.14-.56 1.92-1.24 8.1-2.11 9.92l5.34-.67c.59-1.39 1.12-7.24 1.31-7.8 1-2.93 2.33-5.35 4.36-7.61 1.99-2.22 1.89-5.07 3.05-7.64 1.25-2.8 2.94-5.04 4.53-7.67 2.89-4.76 4.79-10.77 10.91-12 .65-.13 4.4 2.58 6.07 4.19 1.9 1.83 3.99 3.95 5.24 6.48 2.42 4.9 4.48 11.98 5.26 15.9.44 2.24.8 2.37 2.32 4.15.7.82 2.1 3.37 2.55 4.34.48 1.05 1.22 3.42 1.8 4.64.34.72 1.24 2.94 1.89 4.85l4.98-.15c.02.04.11-.02.13.02l-.05-.12a55.45 55.45 0 01-4.9-16.28z"/>
  <path fill="#484444" d="M82.92 97.9l.02-.06c-.03-.15-.04-.19-.02.06z"/>
  <linearGradient id="a" x1="-675.08" x2="-675.08" y1="96.44" y2="96.62" gradientTransform="translate(758 1.28)" gradientUnits="userSpaceOnUse">
    <stop offset="0" stop-color="#f29100"/>
    <stop offset="1" stop-color="#ec670f"/>
  </linearGradient>
  <path fill="url(#a)" d="M82.92 97.9l.02-.06c-.03-.15-.04-.19-.02.06z"/>
  <linearGradient id="b" x1="-696.72" x2="-696.72" y1="97.7" y2="143" gradientTransform="translate(758 1.28)" gradientUnits="userSpaceOnUse">
    <stop offset="0" stop-color="#f29100"/>
    <stop offset="1" stop-color="#ec670f"/>
  </linearGradient>
  <path fill="url(#b)" d="M84.03 138.67c-.58-1.2-1.31-3.58-1.8-4.63a29.3 29.3 0 00-2.55-4.34c-1.52-1.78-1.88-1.91-2.32-4.16-.78-3.9-2.84-11-5.26-15.9-1.25-2.52-3.33-4.65-5.24-6.48-1.66-1.6-5.41-4.3-6.07-4.17-6.12 1.22-8.02 7.23-10.9 11.98-1.6 2.64-3.29 4.88-4.54 7.68-1.16 2.57-1.06 5.42-3.05 7.63a21.08 21.08 0 00-4.36 7.62c-.18.56-.72 6.4-1.3 7.8l9.1-.64c8.48.57 6.03 3.83 19.27 3.12l20.9-.65a59.64 59.64 0 00-1.88-4.86z"/>
  <linearGradient id="c" x1="-675.22" x2="-675.22" y1="-1.28" y2="142.96" gradientTransform="translate(758 1.28)" gradientUnits="userSpaceOnUse">
    <stop offset="0" stop-color="#f29100"/>
    <stop offset="1" stop-color="#ec670f"/>
  </linearGradient>
  <path fill="url(#c)" d="M144.7 0H20.86A20.86 20.86 0 000 20.86v45.5c2.98-1.07 7.28-7.42 8.62-8.97 2.35-2.7 2.78-6.14 3.95-8.31 2.67-4.94 3.13-8.34 9.2-8.34 2.83 0 3.95.65 5.86 3.22a56.87 56.87 0 014.7 7.29c1.25 2.54 3.27 5.98 4.16 6.68.66.52 1.32.9 1.93 1.13.98.37 1.8-.3 2.45-.83.84-.67 1.2-2.03 1.98-3.85 1.12-2.62 2.35-5.77 3.04-6.86 1.2-1.9 1.61-4.15 2.91-5.24 1.92-1.6 4.42-1.72 5.1-1.86 3.86-.76 5.6 1.86 7.5 3.55a17.75 17.75 0 014.14 6.33c.94 2.34 2.14 4.5 2.64 5.85.49 1.3 1.68 3.39 2.39 5.89.64 2.27 2.36 4.01 3.02 5.1 0 0 1 2.8 7.09 5.36 1.32.55 3.98 1.46 5.58 2.04 2.64.96 5.2.83 8.46.44 2.33 0 3.59-3.37 4.65-6.06.62-1.6 1.22-6.17 1.63-7.46.4-1.26-.53-2.24.26-3.35.92-1.29 1.46-1.36 2-3.04 1.14-3.6 7.73-3.79 11.44-3.79 3.09 0 2.7 3 7.94 1.98 3-.6 5.9.38 9.08 1.23 2.68.71 5.2 1.52 6.72 3.3.98 1.14 3.4 6.88.93 7.12.24.3.41.82.86 1.1-.55 2.17-2.95.63-4.28.35-1.8-.37-3.07.06-4.82.84-3 1.33-7.4 1.18-10.01 3.35-2.22 1.85-2.22 5.97-3.25 8.28 0 0-2.87 7.4-9.15 11.92-1.6 1.16-4.74 3.95-11.58 5-3.06.48-5.93.52-9.08.36-1.54-.07-3-.15-4.54-.17-.9-.01-3.96-.1-3.8.18l-.35.85c.05.28.16.98.2 1.15.12.68.16 1.23.18 1.86.05 1.3-.1 2.64-.04 3.95.14 2.71 1.14 5.18 1.27 7.92.14 3.04 1.65 6.26 3.1 8.75.56.95 1.4 1.05 1.76 2.22.43 1.34.03 2.75.24 4.18a55.34 55.34 0 004.95 16.4c3.07-.52 6.15-1.62 10.14-2.21 7.31-1.09 17.48-.53 24.02-1.14 16.53-1.55 25.5 6.78 40.35 3.36V20.86A20.86 20.86 0 00144.7 0zM82.91 97.9c-.02-.25-.01-.21.02-.06l-.02.06z"/>
  <g>
    <linearGradient id="d" x1="-735.13" x2="-735.13" y1="90.83" y2="141.97" gradientTransform="translate(758 1.28)" gradientUnits="userSpaceOnUse">
      <stop offset="0" stop-color="#f29100"/>
      <stop offset="1" stop-color="#ec670f"/>
    </linearGradient>
    <path fill="url(#d)" d="M38.17 117.05c1.16-2.51 1.82-5.38 2.78-7.96.92-2.47 2.35-5.96 4.78-7.2-.3-.35-5.1-.51-6.37-.64-1.43-.14-2.76-.3-4.14-.59-2.6-.52-5.42-1.03-7.97-1.64-1.55-.37-6.71-2.2-7.83-2.71-2.63-1.22-4.38-4.51-6.43-4.17-1.32.21-2.6.66-3.41 1.99-.67 1.08-.9 2.93-1.35 4.17-.54 1.45-1.46 2.8-2.27 4.17-1.49 2.53-4.17 4.8-5.32 7.27-.23.5-.44 1.07-.63 1.66v28.11c1.34.23 2.75.52 4.33.94 11.63 3.1 14.47 3.36 25.87 2.06l1.07-.14c.88-1.82 1.55-8 2.12-9.92.44-1.47 1.04-2.64 1.27-4.14.22-1.42-.02-2.78-.14-4.07-.32-3.25 2.37-4.4 3.64-7.19z"/>
  </g>
  <path fill="#484444" d="M218.35 125.8a37.7 37.7 0 01-15.08-2.94 32.73 32.73 0 01-11.7-8.44 38.77 38.77 0 01-7.57-13.4c-1.8-5.25-2.7-11.21-2.7-17.89 0-6.67.9-12.62 2.7-17.83a36.9 36.9 0 017.57-13.14 32.5 32.5 0 0111.7-8.14 39.16 39.16 0 0115.08-2.81c5.5 0 10.53.94 15.08 2.81a32.18 32.18 0 0111.7 8.2 37.58 37.58 0 017.57 13.2c1.8 5.22 2.7 11.12 2.7 17.71 0 6.68-.9 12.64-2.7 17.9a38.8 38.8 0 01-7.57 13.39 32.75 32.75 0 01-11.7 8.44 37.74 37.74 0 01-15.08 2.94zm0-15.89c5.59 0 10.01-2.4 13.27-7.2 3.25-4.8 4.88-11.32 4.88-19.58 0-8.18-1.63-14.56-4.88-19.15-3.26-4.58-7.68-6.88-13.27-6.88s-10.01 2.3-13.26 6.88c-3.26 4.6-4.89 10.98-4.89 19.15 0 8.26 1.63 14.79 4.89 19.59 3.25 4.8 7.67 7.19 13.26 7.19zM261.9 84c0-6.75 1.04-12.78 3.13-18.08 2.08-5.3 4.9-9.78 8.44-13.45a35.86 35.86 0 0112.4-8.38 39.3 39.3 0 0114.95-2.88c5.09 0 9.7 1.06 13.83 3.19a39.4 39.4 0 0110.32 7.44l-10.14 11.4a28.68 28.68 0 00-6.32-4.51 16.2 16.2 0 00-7.44-1.63c-2.84 0-5.49.6-7.95 1.81a19.17 19.17 0 00-6.44 5.2c-1.84 2.25-3.28 5-4.32 8.25a36 36 0 00-1.56 11.02c0 8.43 1.8 14.95 5.38 19.58 3.58 4.63 8.38 6.95 14.39 6.95 3.34 0 6.26-.67 8.76-2a25.48 25.48 0 006.76-5.26l10.14 11.14c-3.43 4-7.33 7-11.7 9-4.39 2.01-9.12 3.01-14.21 3.01a41.2 41.2 0 01-14.9-2.69 34.74 34.74 0 01-12.26-7.95 36.9 36.9 0 01-8.26-13.07c-2-5.21-3-11.24-3-18.08zM332.35 107.03c0-6.5 2.75-11.6 8.26-15.27 5.5-3.67 14.4-6.13 26.66-7.38-.17-2.75-1-4.94-2.5-6.57-1.5-1.62-3.93-2.44-7.26-2.44-2.67 0-5.34.5-8.01 1.5s-5.51 2.38-8.51 4.13l-6.51-12.13c4-2.42 8.2-4.38 12.58-5.89A42.74 42.74 0 01361 60.73c8 0 14.12 2.28 18.33 6.82 4.21 4.55 6.32 11.62 6.32 21.21v35.54h-15.01l-1.38-6.38h-.38a39.03 39.03 0 01-8.44 5.7 21.65 21.65 0 01-9.7 2.18c-2.84 0-5.38-.48-7.64-1.43a16.58 16.58 0 01-5.75-4.01 18.52 18.52 0 01-3.7-5.94 20.22 20.22 0 01-1.3-7.39zm17.52-1.38c0 2 .65 3.49 1.94 4.45 1.3.96 3.03 1.44 5.2 1.44 2.16 0 4-.46 5.5-1.38a26.3 26.3 0 004.76-3.88V95.39c-6.6.92-11.14 2.25-13.64 4-2.5 1.76-3.76 3.85-3.76 6.27zM396.42 62.23h15.02l1.25 8.01h.5a49.61 49.61 0 018.26-6.7c2.92-1.87 6.43-2.81 10.52-2.81 4.42 0 7.98.9 10.7 2.69a18.46 18.46 0 016.44 7.7 54.5 54.5 0 018.7-7.33c3.04-2.04 6.65-3.06 10.82-3.06 6.68 0 11.58 2.23 14.7 6.7 3.14 4.46 4.7 10.57 4.7 18.33v38.54h-18.4V88.13c0-4.5-.6-7.59-1.81-9.26-1.21-1.66-3.15-2.5-5.82-2.5-3.09 0-6.63 2-10.64 6v41.93h-18.4V88.13c0-4.5-.6-7.59-1.8-9.26-1.22-1.66-3.16-2.5-5.83-2.5-3.17 0-6.67 2-10.5 6v41.93h-18.4V62.23zM498.67 36.58h18.4v69.2c0 1.92.35 3.25 1.05 4s1.44 1.13 2.2 1.13h1.06c.29 0 .69-.08 1.19-.25l2.25 13.64c-1 .42-2.27.77-3.82 1.07-1.54.29-3.36.43-5.44.43-3.17 0-5.84-.5-8.01-1.5s-3.9-2.4-5.2-4.19a17.76 17.76 0 01-2.8-6.5c-.6-2.55-.88-5.4-.88-8.58V36.58z"/>
</svg>