<svg data-name="Layer 1" 
  xmlns="http://www.w3.org/2000/svg" viewBox="0 0 1028.532 752.522">
  <ellipse cx="512.256" cy="706.435" rx="256" ry="43" fill="#dee3f3" opacity=".5"/>
  <g opacity=".45">
    <path d="M450.768 258.968a11.132 11.132 0 00.102 1.437 11.102 11.102 0 01-.102-1.437zM579.684 228.08c.02.129.044.256.059.385-.015-.13-.04-.256-.059-.384zM579.416 226.807zM579.55 261.385zM579.73 260.33zM456.73 268.784a11.129 11.129 0 01-2.369-1.665 11.093 11.093 0 002.369 1.665zM454.275 267.04a11.15 11.15 0 01-.945-1.002 11.108 11.108 0 00.945 1.002zM644.514 478.435a10.968 10.968 0 00-.47-1.286 10.99 10.99 0 01.47 1.286zM639.007 471.768a11.111 11.111 0 011.262.77 11.053 11.053 0 00-1.262-.77zM641.485 473.533a11.127 11.127 0 011.767 2.14 11.114 11.114 0 00-1.767-2.14zM640.307 472.566a11.184 11.184 0 011.05.852 11.109 11.109 0 00-1.05-.852zM643.948 476.951a11.023 11.023 0 00-.555-1.046 10.98 10.98 0 01.555 1.046zM644.819 479.8a11.016 11.016 0 00-.235-1.094 11.012 11.012 0 01.235 1.095z" fill="#c23326"/>
    <path d="M978.464 419.143H914.81a11.056 11.056 0 004.762-9.093v-29.222a11.074 11.074 0 00-11.074-11.074h-73.265a11.076 11.076 0 007.709-10.55v-29.222a11.056 11.056 0 00-4.763-9.093h70.32a11.074 11.074 0 0011.073-11.075v-29.222a11.074 11.074 0 00-11.074-11.075h-78.276a11.076 11.076 0 007.708-10.55v-29.222a11.056 11.056 0 00-4.762-9.093h75.33a11.074 11.074 0 0011.074-11.074v-29.223a11.074 11.074 0 00-11.074-11.074h-39.435a11.076 11.076 0 007.708-10.55V129.51a11.074 11.074 0 00-11.074-11.074H758.793a11.074 11.074 0 00-11.075 11.074 11.074 11.074 0 00-11.074-11.074H629.738a11.066 11.066 0 00-10.035 6.412 11.101 11.101 0 01.214 2.156v29.223a11.013 11.013 0 01-1.036 4.654 11.053 11.053 0 003.853 6.42h27.456a11.026 11.026 0 017.014 2.506h11.97a11.077 11.077 0 00-7.709 10.55 11.103 11.103 0 00-.206-2.099c0 .04.005.078.005.117v29.223a11.057 11.057 0 01-.36 2.761 4.03 4.03 0 01.474.611 11.16 11.16 0 00.087-1.391 11.04 11.04 0 00.186 1.914 3.267 3.267 0 01.248 1.108 11.091 11.091 0 004.329 6.07h-9.525c.085-.058.16-.13.245-.192-.885.023-1.776-.074-2.661-.084a2.46 2.46 0 01-.92-.191 11.063 11.063 0 01-3.177.468l-65.605 1.981a11.056 11.056 0 00-4.763 9.093v29.223a11.076 11.076 0 007.709 10.55l62.659.524a11.069 11.069 0 013.25.487 12.109 12.109 0 012.07.363c.053-.011.105-.015.157-.026a11.005 11.005 0 00-1.91-.824h15.416a11.077 11.077 0 00-7.708 10.55 11.121 11.121 0 00-.169-1.916 2.459 2.459 0 01-.243.298 11.118 11.118 0 01.211 2.142v29.223c0 1.355.201 1.03.201-.525a11.056 11.056 0 004.762 9.093l39.093 1.253a11.026 11.026 0 013.923.728h9.408a11.119 11.119 0 00-3.828 4.682 11.005 11.005 0 011.571 5.665v29.222a11.029 11.029 0 01-.928 4.432 11.102 11.102 0 006.13 4.865h-10.272a11.012 11.012 0 01-6.004 1.777h-38.78a11.052 11.052 0 00-5.075 9.297c0-3.903-1.454 34.557-1.454 34.557 0 3.454 60.344 5.011 60.344 5.011a11.026 11.026 0 014.453.94 7.747 7.747 0 011.917-.166c-.02-.014-.037-.031-.057-.045h9.524a11.056 11.056 0 00-4.762 9.093 11.091 11.091 0 00-.122-1.58c-.053.12-.107.24-.167.354a11.081 11.081 0 01.289 2.479v27.97a11.074 11.074 0 0011.074 11.074h-17.043a11.016 11.016 0 01-5.106 1.253h-69.41a11.067 11.067 0 00-5.969 9.821v29.222a11.074 11.074 0 0011.074 11.075h106.906a11.074 11.074 0 0011.074-11.075 11.074 11.074 0 0011.075 11.075H892.01a11.074 11.074 0 0011.074-11.075V481.59a11.074 11.074 0 00-11.074-11.074h86.454a11.074 11.074 0 0011.074-11.075v-29.222a11.074 11.074 0 00-11.074-11.075zm-264.825-198.49a11.056 11.056 0 00-4.762 9.092 11.056 11.056 0 00-4.763-9.093zm-12.47 48.864a11.076 11.076 0 007.708-10.55 11.076 11.076 0 007.708 10.55zm38.84-100.236a11.076 11.076 0 007.71-10.55 11.076 11.076 0 007.707 10.55zM774.03 481.59a11.074 11.074 0 00-11.074-11.074h22.149a11.074 11.074 0 00-11.075 11.074zm11.727-62.446a11.056 11.056 0 004.762-9.093 11.056 11.056 0 004.763 9.093zm4.762-38.315a11.076 11.076 0 00-7.708-10.55h15.417a11.077 11.077 0 00-7.709 10.55zm-4.762-61.92a11.056 11.056 0 004.762-9.094 11.056 11.056 0 004.763 9.093zm4.762-38.316a11.077 11.077 0 00-7.708-10.55h15.417a11.077 11.077 0 00-7.709 10.55zm-4.762-61.921a11.056 11.056 0 004.762-9.093 11.056 11.056 0 004.763 9.093zm4.762-38.316a11.076 11.076 0 00-7.708-10.55h15.417a11.077 11.077 0 00-7.709 10.55zm74.727 240.77a11.056 11.056 0 00-4.762 9.093 11.056 11.056 0 00-4.762-9.093zm-15.836 49.39a11.074 11.074 0 0011.074-11.075 11.074 11.074 0 0011.074 11.075z" fill="#c23326"/>
    <path d="M644.976 481.589a11.136 11.136 0 00-.1-1.41 11.107 11.107 0 01.1 1.41zM579.822 258.968zM450.896 260.62a10.97 10.97 0 00.283 1.316 10.964 10.964 0 01-.283-1.317zM326.964 325.914a2.521 2.521 0 01-.472-.56 2.7 2.7 0 01-.315-.924 22.361 22.361 0 00.035 2.277 11 11 0 01.514 3.275 11.005 11.005 0 01.486-3.186 4.58 4.58 0 01-.234-.775c-.007-.036-.007-.07-.014-.107z" fill="#c23326"/>
    <path d="M478.535 118.435H371.63a11.074 11.074 0 00-11.074 11.074 11.074 11.074 0 00-11.075-11.074H242.576a11.074 11.074 0 00-11.075 11.074v29.222a11.076 11.076 0 007.709 10.55h-82.887a11.074 11.074 0 00-11.075 11.074v29.223a11.056 11.056 0 004.763 9.093H74.68a11.074 11.074 0 00-11.074 11.074v29.223a11.074 11.074 0 0011.074 11.074h78.277a11.077 11.077 0 00-7.709 10.55v29.222a11.056 11.056 0 004.763 9.093H79.69a11.074 11.074 0 00-11.074 11.075v29.222a11.074 11.074 0 0011.075 11.074h73.265a11.077 11.077 0 00-7.709 10.55v29.222a11.074 11.074 0 0011.075 11.075h63.652a11.056 11.056 0 00-4.762 9.093v29.222a11.074 11.074 0 0011.074 11.075h-86.453a11.074 11.074 0 00-11.075 11.074v29.222a11.074 11.074 0 0011.075 11.075h106.905a11.074 11.074 0 0011.074-11.075 11.074 11.074 0 0011.075 11.075h106.905a11.074 11.074 0 0011.075-11.075V481.59a11.067 11.067 0 00-5.97-9.821h-23.05a11.016 11.016 0 01-5.106-1.253h-19.55a11.074 11.074 0 0011.075-11.075c0 4.819 2.506-27.97 2.506-27.97a11.074 11.074 0 0111.074-11.074l40.747-1.253a11.149 11.149 0 002.935-3.029 11.003 11.003 0 01-.879-4.286v-29.222a11.017 11.017 0 011.832-6.094 11.107 11.107 0 00-4.2-4.98h-57.976a11.012 11.012 0 01-6.004-1.778h-15.284a11.076 11.076 0 007.708-10.55l-.393-29.01c0-1.306-.07-2.463-.121-3.487a11.094 11.094 0 00-4.248-5.818h9.524c-.072.05-.135.11-.206.161 5.4-.31 67.075-3.927 72.089-7.963a8.696 8.696 0 01-.074-2.318 11.102 11.102 0 01-.141-1.683v-29.223c0-.362.02-.72.054-1.074a11.088 11.088 0 00-7.561-8.747h13.476a11.016 11.016 0 015.105-1.253h30.568a11.064 11.064 0 005.97-9.821v-29.223a11.056 11.056 0 00-4.762-9.093l-31.776-1.981c-5.384 0-8.947-1.972-6.11 0h-9.526a11.055 11.055 0 004.759-9.028 11.116 11.116 0 01-.197-2.046v-29.223c0-.024.003-.047.004-.07a11.086 11.086 0 00-7.511-8.498h11.568a11.026 11.026 0 017.013-2.506h71.31a11.04 11.04 0 004.07-8.569V129.51a11.074 11.074 0 00-11.075-11.074zM197.422 220.652a11.056 11.056 0 00-4.762 9.093 11.056 11.056 0 00-4.762-9.093zm-4.762 38.316a11.076 11.076 0 007.708 10.55h-15.416a11.076 11.076 0 007.708-10.55zm9.774 61.92a11.056 11.056 0 00-4.762 9.094 11.056 11.056 0 00-4.763-9.093zm-12.47 48.866a11.076 11.076 0 007.708-10.55 11.076 11.076 0 007.708 10.55zm136.512-149.102a11.056 11.056 0 00-4.762 9.093 11.056 11.056 0 00-4.762-9.093zM257.813 481.59a11.074 11.074 0 00-11.074-11.074h22.149a11.074 11.074 0 00-11.075 11.074zm11.727-62.446a11.056 11.056 0 004.763-9.093 11.056 11.056 0 004.762 9.093zm4.763-38.315a11.077 11.077 0 00-7.709-10.55h15.417a11.077 11.077 0 00-7.708 10.55zm-4.763-61.92a11.056 11.056 0 004.763-9.094 11.056 11.056 0 004.762 9.093zm4.763-38.316a11.077 11.077 0 00-7.709-10.55h15.417a11.077 11.077 0 00-7.708 10.55zm-4.763-61.921a11.056 11.056 0 004.763-9.093 11.056 11.056 0 004.762 9.093zm4.763-38.316a11.077 11.077 0 00-7.709-10.55h15.417a11.077 11.077 0 00-7.708 10.55zm39.703 89.162a11.076 11.076 0 007.708-10.55 11.076 11.076 0 007.708 10.55zm38.841-100.236a11.076 11.076 0 007.709-10.55 11.076 11.076 0 007.708 10.55zM454.409 221.554l.157-.143-.157.143z" fill="#c23326"/>
    <path d="M453.673 222.288c-.055.06-.11.118-.163.179.053-.061.108-.12.163-.18zM452.744 223.44c.025-.036.053-.07.079-.105l-.08.106zM451.245 262.161a10.989 10.989 0 00.463 1.266 10.989 10.989 0 01-.463-1.266zM452.426 264.791a11.077 11.077 0 00.818 1.14 11.062 11.062 0 01-.818-1.14zM451.764 263.544a11.015 11.015 0 00.655 1.236 10.995 10.995 0 01-.655-1.236zM451.071 227.21zM451.445 225.962c.04-.11.078-.222.121-.33-.043.108-.08.22-.12.33zM450.848 228.465c.015-.13.04-.256.059-.384-.02.128-.044.254-.059.384zM452.055 224.57c.007-.013.012-.027.02-.04-.008.013-.013.027-.02.04z" fill="#c23326"/>
    <rect x="318.489" y="192.174" width="129.054" height="51.371" rx="8.839" transform="rotate(-180 340.149 180.99)" opacity=".1"/>
    <rect x="704.398" y="192.174" width="129.054" height="51.371" rx="8.839" transform="rotate(-180 726.058 180.99)" opacity=".1"/>
    <rect x="876.053" y="242.292" width="129.054" height="51.371" rx="8.839" transform="rotate(-180 897.713 231.108)" opacity=".1"/>
    <rect x="665.557" y="292.41" width="129.054" height="51.371" rx="8.839" transform="rotate(-180 687.217 281.226)" opacity=".1"/>
    <rect x="876.053" y="343.781" width="129.054" height="51.371" rx="8.839" transform="rotate(-180 897.713 332.597)" opacity=".1"/>
    <rect x="876.053" y="444.017" width="129.054" height="51.371" rx="8.839" transform="rotate(-180 897.713 432.833)" opacity=".1"/>
    <path d="M852.421 420.396H739.493a8.062 8.062 0 00-7.736 5.803 5.153 5.153 0 01-.091 1.36 5.713 5.713 0 01-.23.772c0 .043-.006.085-.006.128v35.246a8.063 8.063 0 008.063 8.063H852.42a8.063 8.063 0 008.063-8.063v-35.246a8.063 8.063 0 00-8.063-8.063z" opacity=".1"/>
    <rect x="730.71" y="544.254" width="129.054" height="51.371" rx="8.839" transform="rotate(-180 752.37 533.07)" opacity=".1"/>
    <rect x="359.836" y="242.292" width="129.054" height="51.371" rx="8.839" transform="rotate(-180 381.496 231.108)" opacity=".1"/>
    <rect x="279.647" y="292.41" width="129.054" height="51.371" rx="8.839" transform="rotate(-180 301.307 281.226)" opacity=".1"/>
    <rect x="230.782" y="343.781" width="129.054" height="51.371" rx="8.839" transform="rotate(-180 252.442 332.597)" opacity=".1"/>
    <rect x="283.406" y="393.899" width="129.054" height="51.371" rx="8.839" transform="rotate(-180 305.066 382.715)" opacity=".1"/>
    <rect x="230.782" y="444.017" width="129.054" height="51.371" rx="8.839" transform="rotate(-180 252.442 432.833)" opacity=".1"/>
    <rect x="172.398" y="494.191" width="129.054" height="51.371" rx="8.839" transform="rotate(-180 194.058 483.007)" fill="#c23326"/>
    <rect x="925.915" y="393.844" width="129.054" height="51.371" rx="8.839" transform="rotate(-180 947.575 382.66)" fill="#c23326"/>
    <rect x="920.442" y="292.584" width="129.054" height="51.371" rx="8.839" transform="rotate(-180 942.102 281.4)" fill="#c23326"/>
    <rect x="985.212" y="543.453" width="129.054" height="51.371" rx="8.839" transform="rotate(-180 1006.872 532.269)" fill="#c23326"/>
    <rect x="85.734" y="544.365" width="129.054" height="51.371" rx="8.839" transform="rotate(-180 107.394 533.18)" fill="#c23326"/>
    <rect x="103.067" y="443.105" width="129.054" height="51.371" rx="8.839" transform="rotate(-180 124.727 431.921)" fill="#c23326"/>
    <rect x="103.067" y="343.67" width="129.054" height="51.371" rx="8.839" transform="rotate(-180 124.727 332.486)" fill="#c23326"/>
    <rect x="107.628" y="242.41" width="129.054" height="51.371" rx="8.839" transform="rotate(-180 129.288 231.226)" fill="#c23326"/>
    <rect x="107.628" y="242.41" width="129.054" height="51.371" rx="8.839" transform="rotate(-180 129.288 231.226)" opacity=".1"/>
    <rect x="189.731" y="192.237" width="129.054" height="51.371" rx="8.839" transform="rotate(-180 211.39 181.053)" fill="#c23326"/>
    <rect x="302.2" y="494.136" width="129.054" height="51.371" rx="8.839" transform="rotate(-180 323.86 482.952)" opacity=".1"/>
    <rect x="214.493" y="544.254" width="129.054" height="51.371" rx="8.839" transform="rotate(-180 236.153 533.07)" opacity=".1"/>
  </g>
  <circle cx="810.335" cy="28.92" r="28.92" fill="#c23326" opacity=".5"/>
  <path d="M251.94 81.354h-6.882a4.817 4.817 0 100-9.633h-55.734a4.817 4.817 0 100 9.633h6.881a4.817 4.817 0 100 9.633h-9.633a4.817 4.817 0 000 9.633h55.734a4.817 4.817 0 000-9.633h9.633a4.817 4.817 0 000-9.633zM806.67 25.445h-5.237a3.666 3.666 0 000-7.331h-42.417a3.666 3.666 0 000 7.331h5.237a3.666 3.666 0 100 7.331h-7.332a3.666 3.666 0 100 7.332h42.417a3.666 3.666 0 100-7.332h7.332a3.666 3.666 0 100-7.331zM383.94 13.354h-6.882a4.817 4.817 0 100-9.633h-55.734a4.817 4.817 0 100 9.633h6.881a4.817 4.817 0 100 9.633h-9.633a4.817 4.817 0 000 9.633h55.734a4.817 4.817 0 000-9.633h9.633a4.817 4.817 0 000-9.633z" fill="#dee3f3" opacity=".5"/>
  <rect x="377.905" y="264.742" width="232.009" height="107.599" rx="12.97" fill="#c23326"/>
  <path opacity=".1" d="M396.399 355.826h195.022v2.017H396.399z"/>
  <path opacity=".3" d="M396.399 281.554h195.022v73.974H396.399z"/>
  <circle cx="441.792" cy="320.085" r="26.9" opacity=".1"/>
  <circle cx="546.028" cy="320.085" r="26.9" opacity=".1"/>
  <path fill="#c23326" d="M473.734 372.337h40.347v23.543h-40.347z"/>
  <path fill="#c23326" d="M409.848 389.152h168.123V523.65H409.848zM406.486 550.55h174.848v16.812H406.486zM435.067 607.712v77.336h30.262V584.175h-30.262v23.537zM525.853 584.175v100.873h30.262V584.175h-30.262zM386.949 419.415v31.1a45.49 45.49 0 00-22.355 10.776 52.883 52.883 0 00-13.307 19.514c-3.89 9.425-5.782 19.892-6.554 29.788a170.317 170.317 0 001.86 39.961H312.97c-1.428-18.587-.973-34.535.88-48.229 2.076-15.438 5.92-28.004 10.79-38.224 9.742-20.432 23.598-31.517 35.77-37.538 14.458-7.148 26.539-7.148 26.539-7.148z"/>
  <path opacity=".3" d="M435.067 584.175h30.262v23.537h-30.262zM435.067 627.887h30.262v30.262h-30.262zM435.067 674.961h30.262v10.087h-30.262zM525.853 584.175h30.262v23.537h-30.262zM525.853 627.887h30.262v30.262h-30.262zM525.853 674.961h30.262v10.087h-30.262zM386.949 419.415v31.1a45.49 45.49 0 00-22.355 10.776l-4.183-34.728c14.457-7.148 26.538-7.148 26.538-7.148zM351.287 480.805c-3.89 9.425-5.782 19.892-6.554 29.788l-30.883-8.268c2.076-15.437 5.92-28.004 10.79-38.224z"/>
  <path d="M600.87 419.415v31.1a45.49 45.49 0 0122.355 10.776 52.883 52.883 0 0113.308 19.514c3.89 9.425 5.781 19.892 6.553 29.788a170.318 170.318 0 01-1.86 39.961h33.624c1.428-18.587.973-34.535-.88-48.229-2.076-15.438-5.92-28.004-10.791-38.224-9.742-20.432-23.597-31.517-35.77-37.538-14.458-7.148-26.538-7.148-26.538-7.148z" fill="#c23326"/>
  <path d="M600.87 419.415v31.1a45.49 45.49 0 0122.355 10.776l4.184-34.728c-14.458-7.148-26.538-7.148-26.538-7.148zM636.533 480.805c3.89 9.425 5.781 19.892 6.553 29.788l30.884-8.268c-2.076-15.437-5.92-28.004-10.791-38.224z" opacity=".3"/>
  <path opacity=".1" d="M473.734 372.337h40.347v2.787h-40.347zM580.959 413.117v56.31a11.733 11.733 0 01-3.126-7.981V421.09a11.713 11.713 0 013.126-7.973zM410.445 416.83v42.153a11.721 11.721 0 01-3.133 7.133v-56.419a11.721 11.721 0 013.133 7.133zM418.257 523.653h151.308v1.992H418.257zM414.892 567.366h73.971v1.544h-73.971zM495.594 567.366h73.971v1.544h-73.971z"/>
  <path fill="#c23326" d="M423.143 165.166h11.579v99.575h-11.579zM555.911 165.166h11.579v99.575h-11.579z"/>
  <circle cx="428.547" cy="165.938" r="13.122" opacity=".1"/>
  <circle cx="428.547" cy="165.166" r="13.122" fill="#c23326"/>
  <circle cx="562.086" cy="165.938" r="13.122" opacity=".1"/>
  <circle cx="562.086" cy="165.166" r="13.122" fill="#c23326"/>
  <path d="M151.522 470.212s38.4 75.378 7.111 116.623 2.845 153.6 2.845 153.6" fill="none" stroke="#fc6681" stroke-miterlimit="10" stroke-width="2"/>
  <path d="M162.9 446.746c0 14.531-10.667 26.31-10.667 26.31s-10.666-11.779-10.666-26.31 10.666-26.311 10.666-26.311 10.667 11.78 10.667 26.31z" fill="#fc6681"/>
  <path d="M171.433 470.212s-38.4 75.378-7.11 116.623-2.845 153.6-2.845 153.6" fill="none" stroke="#ffd037" stroke-miterlimit="10" stroke-width="2"/>
  <path d="M160.056 446.746c0 14.531 10.666 26.31 10.666 26.31s10.667-11.779 10.667-26.31-10.667-26.311-10.667-26.311-10.666 11.78-10.666 26.31z" fill="#ffd037"/>
  <path d="M187.078 470.212s38.4 75.378 7.111 116.623 2.844 153.6 2.844 153.6" fill="none" stroke="#fc6681" stroke-miterlimit="10" stroke-width="2"/>
  <path d="M198.456 446.746c0 14.531-10.667 26.31-10.667 26.31s-10.667-11.779-10.667-26.31 10.667-26.311 10.667-26.311 10.667 11.78 10.667 26.31zM192.476 507.141c-10.075 10.472-25.929 11.566-25.929 11.566s.48-15.885 10.555-26.356 25.929-11.566 25.929-11.566-.48 15.884-10.555 26.356zM193.476 559.141c-10.075 10.472-25.929 11.566-25.929 11.566s.48-15.885 10.555-26.356 25.929-11.566 25.929-11.566-.48 15.884-10.555 26.356zM138.844 587.753c9.526 10.973 9.194 26.86 9.194 26.86s-15.777-1.902-25.304-12.874-9.194-26.861-9.194-26.861 15.777 1.902 25.304 12.875zM147.682 476.854c12.112 8.028 16.039 23.427 16.039 23.427s-15.712 2.384-27.825-5.644-16.039-23.426-16.039-23.426 15.712-2.384 27.825 5.643z" fill="#fc6681"/>
  <path d="M206.989 470.212s-38.4 75.378-7.111 116.623-2.845 153.6-2.845 153.6" fill="none" stroke="#ffd037" stroke-miterlimit="10" stroke-width="2"/>
  <path d="M195.611 446.746c0 14.531 10.667 26.31 10.667 26.31s10.667-11.779 10.667-26.31-10.667-26.311-10.667-26.311-10.667 11.78-10.667 26.31zM198.68 508.259c-10.2 10.35-10.87 26.228-10.87 26.228s15.866-.904 26.066-11.254 10.87-26.228 10.87-26.228-15.866.904-26.066 11.254zM218.68 580.259c-10.2 10.35-10.87 26.228-10.87 26.228s15.866-.904 26.066-11.254 10.87-26.228 10.87-26.228-15.866.904-26.066 11.254z" fill="#ffd037"/>
  <path d="M189.256 564.435s23.115-36.436 55.557-37.218" fill="none" stroke="#ffd037" stroke-miterlimit="10" stroke-width="2"/>
  <path d="M171.256 542.435s-23.116-36.436-55.558-37.218" fill="none" stroke="#fc6681" stroke-miterlimit="10" stroke-width="2"/>
  <path d="M168.256 594.435s23.115-36.436 55.557-37.218" fill="none" stroke="#ffd037" stroke-miterlimit="10" stroke-width="2"/>
  <circle cx="243.756" cy="526.935" r="6" fill="#ffd037"/>
  <circle cx="116.256" cy="505.435" r="6" fill="#fc6681"/>
  <path d="M185.256 606.435s-23.116-36.436-55.558-37.218" fill="none" stroke="#fc6681" stroke-miterlimit="10" stroke-width="2"/>
  <circle cx="130.256" cy="569.435" r="6" fill="#fc6681"/>
  <circle cx="224.256" cy="557.435" r="6" fill="#ffd037"/>
  <path d="M313.026 696.668s-55.703-11.14-70.557-25.995-81.698-40.849-89.125-22.281-100.266 81.698-37.136 92.839 148.542 14.854 167.11 7.427 29.708-51.99 29.708-51.99z" fill="#a8a8a8"/>
  <path d="M116.208 734.332c63.13 11.141 148.542 14.855 167.11 7.427 14.14-5.656 23.966-32.831 27.85-45.478 1.177.25 1.858.387 1.858.387s-11.14 44.563-29.708 51.99-103.98 3.713-167.11-7.427c-18.223-3.216-23.434-10.769-21.471-20.326 1.558 6.236 7.907 11.034 21.471 13.427z" opacity=".2"/>
  <path d="M914.65 483.52s13.346 17.454-6.16 43.806-35.592 48.596-29.09 65.023c0 0 29.432-48.939 53.388-49.623S941 512.952 914.65 483.52z" fill="#fc6681"/>
  <path d="M914.65 483.52a21.618 21.618 0 012.727 5.474c23.373 27.462 35.825 53.09 13.357 53.732-20.928.598-46.033 38.02-52.046 47.471a20.284 20.284 0 00.712 2.152s29.432-48.939 53.388-49.623S941 512.952 914.65 483.52z" opacity=".1"/>
  <path d="M939.461 505.765c0 6.143-.69 11.123-1.54 11.123s-1.54-4.98-1.54-11.123.86-3.25 1.711-3.25 1.369-2.892 1.369 3.25z" fill="#ffd037"/>
  <path d="M947.975 513.1c-5.393 2.939-10.096 4.717-10.503 3.97s3.636-3.736 9.03-6.675 3.266-.8 3.673-.054 3.194-.182-2.2 2.758z" fill="#ffd037"/>
  <path d="M844.15 483.52s-13.346 17.454 6.161 43.806 35.592 48.596 29.09 65.023c0 0-29.432-48.939-53.388-49.623s-8.214-29.774 18.138-59.205z" fill="#fc6681"/>
  <path d="M844.15 483.52a21.618 21.618 0 00-2.726 5.474c-23.373 27.462-35.826 53.09-13.358 53.732 20.928.598 46.034 38.02 52.046 47.471a20.284 20.284 0 01-.712 2.152s-29.431-48.939-53.387-49.623-8.214-29.774 18.138-59.205z" opacity=".1"/>
  <path d="M819.34 505.765c0 6.143.689 11.123 1.54 11.123s1.54-4.98 1.54-11.123-.861-3.25-1.712-3.25-1.369-2.892-1.369 3.25z" fill="#ffd037"/>
  <path d="M810.825 513.1c5.394 2.939 10.096 4.717 10.503 3.97s-3.635-3.736-9.029-6.675-3.266-.8-3.673-.054-3.194-.182 2.2 2.758z" fill="#ffd037"/>
  <path d="M823.59 590.065s37.316-1.15 48.562-9.158 57.402-17.57 60.191-4.727 56.08 63.878 13.95 64.217-97.89-6.562-109.115-13.4-13.588-36.932-13.588-36.932z" fill="#a8a8a8"/>
  <path d="M947.045 635.927c-42.13.34-97.89-6.563-109.115-13.4-8.548-5.207-11.955-23.89-13.094-32.51-.79.033-1.246.048-1.246.048s2.363 30.095 13.588 36.933 66.985 13.74 109.115 13.4c12.161-.099 16.362-4.425 16.131-10.834-1.69 3.872-6.328 6.29-15.38 6.363z" opacity=".2"/>
</svg>